# Blender v2.79 (sub 0) OBJ File: 'Low Poly Rook.blend'
# www.blender.org
mtllib Low Poly Rook.mtl
o LP_Rook_Cylinder
v 0.000000 0.000000 -2.000000
v 0.000000 2.419812 -1.168875
v 1.414214 0.000000 -1.414214
v 0.826519 2.419812 -0.826520
v 2.000000 0.000000 -0.000000
v 1.168875 2.419812 -0.000000
v 1.414214 0.000000 1.414214
v 0.826519 2.419812 0.826519
v -0.000001 0.000000 2.000000
v -0.000000 2.419812 1.168875
v -1.414214 0.000000 1.414213
v -0.826520 2.419812 0.826519
v -2.000000 0.000000 -0.000002
v -1.168875 2.419812 -0.000001
v -1.414212 0.000000 -1.414215
v -0.826518 2.419812 -0.826521
v 0.000000 2.151407 -1.363286
v 0.963989 2.151407 -0.963989
v 1.363286 2.151407 -0.000000
v 0.963989 2.151407 0.963989
v -0.000000 2.151407 1.363286
v -0.963989 2.151407 0.963988
v -1.363286 2.151407 -0.000002
v -0.963987 2.151407 -0.963990
v 0.000000 0.481403 -1.695338
v 1.198785 0.481403 -1.198785
v 1.695338 0.481403 -0.000000
v 1.198785 0.481403 1.198785
v -0.000001 0.481403 1.695338
v -1.198786 0.481403 1.198784
v -1.695338 0.481403 -0.000002
v -1.198783 0.481403 -1.198786
v 0.000000 0.618667 -1.524449
v 1.077948 0.618667 -1.077948
v 1.524449 0.618667 -0.000000
v 1.077948 0.618667 1.077948
v -0.000000 0.618667 1.524449
v -1.077949 0.618667 1.077947
v -1.524449 0.618667 -0.000002
v -1.077947 0.618667 -1.077950
v 0.000000 1.183535 -1.864982
v 1.318741 1.183535 -1.318741
v 1.864982 1.183535 -0.000000
v 1.318741 1.183535 1.318741
v -0.000001 1.183535 1.864982
v -1.318742 1.183535 1.318740
v -1.864982 1.183535 -0.000002
v -1.318740 1.183535 -1.318743
v 0.000000 2.262297 -1.304644
v 0.922523 2.262297 -0.922523
v 1.304644 2.262297 -0.000000
v 0.922523 2.262297 0.922522
v -0.000000 2.262297 1.304644
v -0.922523 2.262297 0.922522
v -1.304644 2.262297 -0.000001
v -0.922521 2.262297 -0.922524
v -1.168875 5.038791 -0.000001
v -0.826518 5.038791 -0.826521
v 0.000000 5.038791 -1.168875
v 0.826520 5.038791 -0.826520
v 1.168875 5.038791 -0.000000
v 0.826520 5.038791 0.826519
v -0.000000 5.038791 1.168875
v -0.826520 5.038791 0.826519
v -1.485367 5.322895 -0.000002
v -1.050312 5.322895 -1.050315
v 0.000000 5.322895 -1.485367
v 1.050313 5.322895 -1.050313
v 1.485367 5.322895 -0.000000
v 1.050313 5.322895 1.050313
v -0.000000 5.322895 1.485367
v -1.050313 5.322895 1.050312
v -1.020167 5.802540 -0.000001
v -0.721366 5.802540 -0.721368
v 0.000000 5.802540 -1.020167
v 0.721367 5.802540 -0.721367
v 1.020167 5.802540 -0.000000
v 0.721367 5.802540 0.721367
v -0.000000 5.802540 1.020167
v -0.721367 5.802540 0.721366
v -1.485367 5.802540 -0.000002
v -1.050312 5.802540 -1.050315
v 0.000000 5.802540 -1.485367
v 1.050313 5.802540 -1.050313
v 1.485367 5.802540 -0.000000
v 1.050313 5.802540 1.050313
v -0.000000 5.802540 1.485367
v -1.050313 5.802540 1.050312
v -1.485367 6.275079 -0.000002
v -1.050312 6.275079 -1.050315
v 1.485367 6.275079 -0.000000
v 1.050313 6.275079 1.050313
v 0.000000 6.275079 -1.485367
v 1.050313 6.275079 -1.050313
v -0.000000 6.275079 1.485367
v -1.050313 6.275079 1.050312
v -1.020167 6.275079 -0.000001
v -0.721366 6.275079 -0.721368
v 1.020167 6.275079 -0.000000
v 0.721367 6.275079 0.721367
v 0.000000 6.275079 -1.020167
v 0.721367 6.275079 -0.721367
v -0.000000 6.275079 1.020167
v -0.721367 6.275079 0.721366
v -1.020167 5.451511 -0.000001
v -0.721366 5.451511 -0.721368
v 0.000000 5.451511 -1.020167
v 0.721367 5.451511 -0.721367
v 1.020167 5.451511 -0.000000
v 0.721367 5.451511 0.721367
v -0.000000 5.451511 1.020167
v -0.721367 5.451511 0.721366
vn 0.2511 0.7547 -0.6062
vn -0.8333 0.4319 -0.3451
vn -0.3451 0.4319 -0.8333
vn 0.8333 0.4319 -0.3451
vn 0.3451 0.4319 -0.8333
vn 0.3304 0.5047 0.7976
vn -0.2511 0.7547 -0.6062
vn 0.8071 -0.4866 0.3343
vn 0.3343 -0.4866 0.8071
vn -0.8071 -0.4866 0.3343
vn -0.3343 -0.4866 0.8071
vn -0.3304 0.5047 0.7976
vn 0.7976 0.5047 0.3304
vn -0.8071 -0.4866 -0.3343
vn -0.3343 -0.4866 -0.8071
vn 0.3343 -0.4866 -0.8071
vn 0.8071 -0.4866 -0.3343
vn -0.7976 0.5047 0.3304
vn -0.6062 0.7547 0.2511
vn 0.2994 0.6229 0.7227
vn -0.2994 0.6229 0.7227
vn 0.2994 0.6229 -0.7227
vn -0.2994 0.6229 -0.7227
vn -0.6062 0.7547 -0.2511
vn -0.2511 0.7547 0.6062
vn 0.7227 0.6229 0.2994
vn -0.7227 0.6229 0.2994
vn 0.7227 0.6229 -0.2994
vn -0.7227 0.6229 -0.2994
vn -0.7976 0.5047 -0.3304
vn 0.2511 0.7547 0.6062
vn 0.8301 0.4390 0.3438
vn 0.3438 0.4390 0.8301
vn -0.3438 0.4390 0.8301
vn -0.8301 0.4390 0.3438
vn -0.3304 0.5047 -0.7976
vn 0.6062 0.7547 0.2511
vn -0.8301 0.4390 -0.3438
vn -0.3438 0.4390 -0.8301
vn 0.3438 0.4390 -0.8301
vn 0.8301 0.4390 -0.3438
vn 0.3304 0.5047 -0.7976
vn -0.3451 0.4319 0.8333
vn -0.8333 0.4319 0.3451
vn 0.3451 0.4319 0.8333
vn 0.8333 0.4319 0.3451
vn 0.6062 0.7547 -0.2511
vn 0.0000 -1.0000 0.0000
vn 0.7976 0.5047 -0.3304
vn -0.9239 0.0000 0.3827
vn 0.6438 -0.7172 -0.2667
vn 0.3827 -0.0000 -0.9239
vn -0.9239 0.0000 -0.3827
vn -0.3827 0.0000 -0.9239
vn -0.3827 0.0000 0.9239
vn 0.9239 -0.0000 0.3827
vn 0.9239 -0.0000 -0.3827
vn 0.3827 -0.0000 0.9239
vn -0.6438 -0.7172 -0.2667
vn -0.2667 -0.7172 0.6438
vn 0.2667 -0.7172 -0.6438
vn 0.2667 -0.7172 0.6438
vn -0.2667 -0.7172 -0.6438
vn -0.6438 -0.7172 0.2667
vn 0.6438 -0.7172 0.2667
vn 0.7071 0.0000 0.7071
vn 0.0000 1.0000 0.0000
vn -1.0000 0.0000 -0.0000
vn 0.7071 0.0000 -0.7071
vn -0.0000 0.0000 -1.0000
vn -0.7071 0.0000 0.7071
vn 1.0000 0.0000 0.0000
vn -0.7071 0.0000 -0.7071
vn -0.0000 0.0000 1.0000
usemtl None
s off
f 25//1 33//1 34//1 26//1
f 47//2 23//2 24//2 48//2
f 48//3 24//3 17//3 41//3
f 42//4 18//4 19//4 43//4
f 41//5 17//5 18//5 42//5
f 7//6 28//6 29//6 9//6
f 32//7 40//7 33//7 25//7
f 35//8 43//8 44//8 36//8
f 36//9 44//9 45//9 37//9
f 38//10 46//10 47//10 39//10
f 37//11 45//11 46//11 38//11
f 9//12 29//12 30//12 11//12
f 5//13 27//13 28//13 7//13
f 39//14 47//14 48//14 40//14
f 40//15 48//15 41//15 33//15
f 33//16 41//16 42//16 34//16
f 34//17 42//17 43//17 35//17
f 11//18 30//18 31//18 13//18
f 30//19 38//19 39//19 31//19
f 52//20 8//20 10//20 53//20
f 53//21 10//21 12//21 54//21
f 49//22 2//22 4//22 50//22
f 56//23 16//23 2//23 49//23
f 31//24 39//24 40//24 32//24
f 29//25 37//25 38//25 30//25
f 51//26 6//26 8//26 52//26
f 54//27 12//27 14//27 55//27
f 50//28 4//28 6//28 51//28
f 55//29 14//29 16//29 56//29
f 13//30 31//30 32//30 15//30
f 28//31 36//31 37//31 29//31
f 19//32 51//32 52//32 20//32
f 20//33 52//33 53//33 21//33
f 21//34 53//34 54//34 22//34
f 22//35 54//35 55//35 23//35
f 15//36 32//36 25//36 1//36
f 27//37 35//37 36//37 28//37
f 23//38 55//38 56//38 24//38
f 24//39 56//39 49//39 17//39
f 17//40 49//40 50//40 18//40
f 18//41 50//41 51//41 19//41
f 1//42 25//42 26//42 3//42
f 45//43 21//43 22//43 46//43
f 46//44 22//44 23//44 47//44
f 44//45 20//45 21//45 45//45
f 43//46 19//46 20//46 44//46
f 26//47 34//47 35//47 27//47
f 13//48 15//48 1//48 3//48 5//48 7//48 9//48 11//48
f 3//49 26//49 27//49 5//49
f 14//50 12//50 64//50 57//50
f 61//51 60//51 68//51 69//51
f 4//52 2//52 59//52 60//52
f 16//53 14//53 57//53 58//53
f 2//54 16//54 58//54 59//54
f 12//55 10//55 63//55 64//55
f 8//56 6//56 61//56 62//56
f 6//57 4//57 60//57 61//57
f 10//58 8//58 62//58 63//58
f 65//50 72//50 88//50 81//50
f 58//59 57//59 65//59 66//59
f 64//60 63//60 71//60 72//60
f 60//61 59//61 67//61 68//61
f 63//62 62//62 70//62 71//62
f 59//63 58//63 66//63 67//63
f 57//64 64//64 72//64 65//64
f 62//65 61//65 69//65 70//65
f 80//52 79//52 111//52 112//52
f 70//56 69//56 85//56 86//56
f 69//57 68//57 84//57 85//57
f 66//53 65//53 81//53 82//53
f 72//55 71//55 87//55 88//55
f 68//52 67//52 83//52 84//52
f 71//58 70//58 86//58 87//58
f 67//54 66//54 82//54 83//54
f 76//66 84//66 94//66 102//66
f 74//67 75//67 83//67 82//67
f 76//67 77//67 85//67 84//67
f 78//67 79//67 87//67 86//67
f 86//56 85//56 91//56 92//56
f 83//68 75//68 101//68 93//68
f 80//67 73//67 81//67 88//67
f 74//69 82//69 90//69 98//69
f 97//67 98//67 90//67 89//67
f 99//67 100//67 92//67 91//67
f 101//67 102//67 94//67 93//67
f 103//67 104//67 96//67 95//67
f 84//52 83//52 93//52 94//52
f 77//53 78//53 100//53 99//53
f 85//70 77//70 99//70 91//70
f 75//55 76//55 102//55 101//55
f 78//71 86//71 92//71 100//71
f 88//55 87//55 95//55 96//55
f 82//53 81//53 89//53 90//53
f 87//72 79//72 103//72 95//72
f 79//52 80//52 104//52 103//52
f 73//56 74//56 98//56 97//56
f 80//73 88//73 96//73 104//73
f 81//74 73//74 97//74 89//74
f 105//67 112//67 111//67 110//67 109//67 108//67 107//67 106//67
f 76//55 75//55 107//55 108//55
f 79//54 78//54 110//54 111//54
f 75//58 74//58 106//58 107//58
f 73//57 80//57 112//57 105//57
f 78//53 77//53 109//53 110//53
f 77//50 76//50 108//50 109//50
f 74//56 73//56 105//56 106//56
