# Blender v2.79 (sub 0) OBJ File: 'Low Poly Pawn.blend'
# www.blender.org
mtllib Low Poly Pawn.mtl
o LP_Pawn_Sphere
v 0.397374 4.561972 -0.397374
v 0.561971 4.000000 -0.561971
v 0.397374 3.438029 -0.397374
v 0.561971 4.561972 0.000000
v 0.794748 4.000000 0.000000
v 0.561971 3.438029 0.000000
v 0.397374 4.561972 0.397374
v 0.561971 4.000000 0.561971
v 0.397374 3.438029 0.397374
v 0.000000 4.561972 0.561971
v 0.000000 4.000000 0.794748
v 0.000000 3.438029 0.561971
v -0.000000 4.794747 0.000000
v -0.397374 4.561972 0.397374
v -0.561971 4.000000 0.561971
v -0.397374 3.438029 0.397374
v -0.561971 4.561972 0.000000
v -0.794747 4.000000 0.000000
v -0.561971 3.438029 0.000000
v -0.397374 4.561972 -0.397374
v -0.561971 4.000000 -0.561971
v -0.397374 3.438029 -0.397374
v 0.000000 4.561972 -0.561971
v 0.000000 4.000000 -0.794747
v 0.000000 3.438029 -0.561971
v 0.000000 0.000000 -1.500000
v 0.000000 1.340894 -0.756452
v 1.060660 0.000000 -1.060660
v 0.534892 1.340894 -0.534892
v 1.500000 0.000000 -0.000000
v 0.756452 1.340894 -0.000000
v 1.060660 0.000000 1.060660
v 0.534892 1.340894 0.534892
v -0.000000 0.000000 1.500000
v -0.000000 1.340894 0.756451
v -1.060661 0.000000 1.060660
v -0.534892 1.340894 0.534892
v -1.500000 0.000000 -0.000001
v -0.756452 1.340894 -0.000001
v -1.060659 0.000000 -1.060661
v -0.534891 1.340894 -0.534893
v 0.000000 1.139585 -1.022465
v 0.722992 1.139585 -0.722992
v 1.022464 1.139585 -0.000000
v 0.722992 1.139585 0.722991
v -0.000000 1.139585 1.022464
v -0.722992 1.139585 0.722991
v -1.022464 1.139585 -0.000001
v -0.722991 1.139585 -0.722993
v 0.000000 0.361063 -1.359657
v 0.961423 0.361063 -0.961423
v 1.359657 0.361063 -0.000000
v 0.961423 0.361063 0.961423
v -0.000000 0.361063 1.359657
v -0.961424 0.361063 0.961422
v -1.359657 0.361063 -0.000001
v -0.961422 0.361063 -0.961424
v 0.000000 0.464013 -1.143337
v 0.808461 0.464013 -0.808461
v 1.143337 0.464013 -0.000000
v 0.808461 0.464013 0.808461
v -0.000000 0.464013 1.143337
v -0.808461 0.464013 0.808460
v -1.143337 0.464013 -0.000001
v -0.808460 0.464013 -0.808462
v 0.000000 0.798798 -1.398736
v 0.989056 0.798798 -0.989056
v 1.398736 0.798798 -0.000000
v 0.989056 0.798798 0.989056
v -0.000000 0.798798 1.398736
v -0.989056 0.798798 0.989055
v -1.398736 0.798798 -0.000001
v -0.989055 0.798798 -0.989057
v 0.000000 1.222755 -0.978483
v 0.691892 1.222755 -0.691892
v 0.978483 1.222755 -0.000000
v 0.691892 1.222755 0.691892
v -0.000000 1.222755 0.978483
v -0.691892 1.222755 0.691891
v -0.978483 1.222755 -0.000001
v -0.691891 1.222755 -0.691893
v -0.476546 2.914807 -0.000001
v -0.336968 2.914807 -0.336970
v 0.000000 2.914807 -0.476546
v 0.336969 2.914807 -0.336969
v 0.476546 2.914807 -0.000000
v 0.336969 2.914807 0.336968
v -0.000000 2.914807 0.476546
v -0.336969 2.914807 0.336968
v -0.902927 3.048057 -0.000001
v -0.638465 3.048057 -0.638467
v 0.000000 3.048057 -0.902927
v 0.638466 3.048057 -0.638466
v 0.902927 3.048057 -0.000000
v 0.638466 3.048057 0.638466
v -0.000000 3.048057 0.902927
v -0.638466 3.048057 0.638465
v 0.115573 3.272954 -0.115573
v 0.163445 3.272954 0.000000
v 0.115573 3.272954 0.115573
v 0.000000 3.272954 -0.163445
v 0.000000 3.272954 0.163445
v -0.115573 3.272954 0.115573
v -0.115573 3.272954 -0.115573
v -0.163445 3.272954 0.000000
vn 0.3574 0.3574 -0.8629
vn 0.3574 -0.3574 -0.8629
vn 0.1566 0.9125 -0.3780
vn 0.8629 -0.3574 -0.3574
vn 0.3780 0.9125 -0.1566
vn 0.8629 0.3574 -0.3574
vn 0.8629 -0.3574 0.3574
vn 0.3780 0.9125 0.1566
vn 0.8629 0.3574 0.3574
vn 0.3574 0.3574 0.8629
vn 0.3574 -0.3574 0.8629
vn 0.1566 0.9125 0.3780
vn -0.3574 0.3574 0.8629
vn -0.3574 -0.3574 0.8629
vn -0.1566 0.9125 0.3780
vn -0.8629 0.3574 0.3574
vn -0.8629 -0.3574 0.3574
vn -0.3780 0.9125 0.1566
vn -0.8629 0.3574 -0.3574
vn -0.8629 -0.3574 -0.3574
vn -0.3780 0.9125 -0.1566
vn -0.3574 0.3574 -0.8629
vn -0.3574 -0.3574 -0.8629
vn -0.1566 0.9125 -0.3780
vn 0.1752 0.8890 -0.4231
vn -0.6468 0.7141 -0.2679
vn -0.2679 0.7141 -0.6468
vn 0.6468 0.7141 -0.2679
vn 0.2679 0.7141 -0.6468
vn 0.3602 0.3380 0.8695
vn -0.1752 0.8890 -0.4231
vn 0.7552 -0.5761 0.3128
vn 0.3128 -0.5761 0.7552
vn -0.7552 -0.5761 0.3128
vn -0.3128 -0.5761 0.7552
vn -0.3602 0.3380 0.8695
vn 0.8695 0.3380 0.3602
vn -0.7552 -0.5761 -0.3128
vn -0.3128 -0.5761 -0.7552
vn 0.3128 -0.5761 -0.7552
vn 0.7552 -0.5761 -0.3128
vn -0.8695 0.3380 0.3602
vn -0.4231 0.8890 0.1752
vn 0.1910 0.8666 0.4611
vn -0.1910 0.8666 0.4611
vn 0.1910 0.8666 -0.4611
vn -0.1910 0.8666 -0.4611
vn -0.4231 0.8890 -0.1752
vn -0.1752 0.8890 0.4231
vn 0.4611 0.8666 0.1910
vn -0.4611 0.8666 0.1910
vn 0.4611 0.8666 -0.1910
vn -0.4611 0.8666 -0.1910
vn -0.8695 0.3380 -0.3602
vn 0.1752 0.8890 0.4231
vn 0.8301 0.4390 0.3438
vn 0.3438 0.4390 0.8301
vn -0.3438 0.4390 0.8301
vn -0.8301 0.4390 0.3438
vn -0.3602 0.3380 -0.8695
vn 0.4231 0.8890 0.1752
vn -0.8301 0.4390 -0.3438
vn -0.3438 0.4390 -0.8301
vn 0.3438 0.4390 -0.8301
vn 0.8301 0.4390 -0.3438
vn 0.3602 0.3380 -0.8695
vn -0.2679 0.7141 0.6468
vn -0.6468 0.7141 0.2679
vn 0.2679 0.7141 0.6468
vn 0.6468 0.7141 0.2679
vn 0.4231 0.8890 -0.1752
vn 0.3776 0.1621 0.9117
vn 0.0000 -1.0000 -0.0000
vn 0.8695 0.3380 -0.3602
vn -0.2960 -0.9473 0.1226
vn -0.9117 0.1621 0.3776
vn 0.3776 0.1621 -0.9117
vn -0.9117 0.1621 -0.3776
vn -0.3776 0.1621 -0.9117
vn -0.3776 0.1621 0.9117
vn 0.9117 0.1621 0.3776
vn 0.9117 0.1621 -0.3776
vn -0.1197 0.9499 -0.2889
vn 0.2960 -0.9473 0.1226
vn 0.2960 -0.9473 -0.1226
vn -0.2960 -0.9473 -0.1226
vn -0.1226 -0.9473 0.2960
vn 0.1226 -0.9473 -0.2960
vn 0.1226 -0.9473 0.2960
vn -0.1226 -0.9473 -0.2960
vn -0.2889 0.9499 0.1197
vn 0.2889 0.9499 0.1197
vn 0.2889 0.9499 -0.1197
vn -0.2889 0.9499 -0.1197
vn -0.1197 0.9499 0.2889
vn 0.1197 0.9499 -0.2889
vn 0.1197 0.9499 0.2889
vn 0.3780 -0.9125 -0.1566
vn 0.1566 -0.9125 -0.3780
vn -0.3780 -0.9125 0.1566
vn -0.1566 -0.9125 -0.3780
vn -0.3780 -0.9125 -0.1566
vn 0.3780 -0.9125 0.1566
vn 0.1566 -0.9125 0.3780
vn -0.1566 -0.9125 0.3780
usemtl None
s off
f 24//1 23//1 1//1 2//1
f 25//2 24//2 2//2 3//2
f 23//3 13//3 1//3
f 3//4 2//4 5//4 6//4
f 1//5 13//5 4//5
f 2//6 1//6 4//6 5//6
f 6//7 5//7 8//7 9//7
f 4//8 13//8 7//8
f 5//9 4//9 7//9 8//9
f 8//10 7//10 10//10 11//10
f 9//11 8//11 11//11 12//11
f 7//12 13//12 10//12
f 11//13 10//13 14//13 15//13
f 12//14 11//14 15//14 16//14
f 10//15 13//15 14//15
f 15//16 14//16 17//16 18//16
f 16//17 15//17 18//17 19//17
f 14//18 13//18 17//18
f 18//19 17//19 20//19 21//19
f 19//20 18//20 21//20 22//20
f 17//21 13//21 20//21
f 21//22 20//22 23//22 24//22
f 22//23 21//23 24//23 25//23
f 20//24 13//24 23//24
f 50//25 58//25 59//25 51//25
f 72//26 48//26 49//26 73//26
f 73//27 49//27 42//27 66//27
f 67//28 43//28 44//28 68//28
f 66//29 42//29 43//29 67//29
f 32//30 53//30 54//30 34//30
f 57//31 65//31 58//31 50//31
f 60//32 68//32 69//32 61//32
f 61//33 69//33 70//33 62//33
f 63//34 71//34 72//34 64//34
f 62//35 70//35 71//35 63//35
f 34//36 54//36 55//36 36//36
f 30//37 52//37 53//37 32//37
f 64//38 72//38 73//38 65//38
f 65//39 73//39 66//39 58//39
f 58//40 66//40 67//40 59//40
f 59//41 67//41 68//41 60//41
f 36//42 55//42 56//42 38//42
f 55//43 63//43 64//43 56//43
f 77//44 33//44 35//44 78//44
f 78//45 35//45 37//45 79//45
f 74//46 27//46 29//46 75//46
f 81//47 41//47 27//47 74//47
f 56//48 64//48 65//48 57//48
f 54//49 62//49 63//49 55//49
f 76//50 31//50 33//50 77//50
f 79//51 37//51 39//51 80//51
f 75//52 29//52 31//52 76//52
f 80//53 39//53 41//53 81//53
f 38//54 56//54 57//54 40//54
f 53//55 61//55 62//55 54//55
f 44//56 76//56 77//56 45//56
f 45//57 77//57 78//57 46//57
f 46//58 78//58 79//58 47//58
f 47//59 79//59 80//59 48//59
f 40//60 57//60 50//60 26//60
f 52//61 60//61 61//61 53//61
f 48//62 80//62 81//62 49//62
f 49//63 81//63 74//63 42//63
f 42//64 74//64 75//64 43//64
f 43//65 75//65 76//65 44//65
f 26//66 50//66 51//66 28//66
f 70//67 46//67 47//67 71//67
f 71//68 47//68 48//68 72//68
f 69//69 45//69 46//69 70//69
f 68//70 44//70 45//70 69//70
f 51//71 59//71 60//71 52//71
f 35//72 33//72 87//72 88//72
f 38//73 40//73 26//73 28//73 30//73 32//73 34//73 36//73
f 28//74 51//74 52//74 30//74
f 82//75 89//75 97//75 90//75
f 39//76 37//76 89//76 82//76
f 29//77 27//77 84//77 85//77
f 41//78 39//78 82//78 83//78
f 27//79 41//79 83//79 84//79
f 37//80 35//80 88//80 89//80
f 33//81 31//81 86//81 87//81
f 31//82 29//82 85//82 86//82
f 92//83 91//83 104//83 101//83
f 87//84 86//84 94//84 95//84
f 86//85 85//85 93//85 94//85
f 83//86 82//86 90//86 91//86
f 89//87 88//87 96//87 97//87
f 85//88 84//88 92//88 93//88
f 88//89 87//89 95//89 96//89
f 84//90 83//90 91//90 92//90
f 90//91 97//91 103//91 105//91
f 95//92 94//92 99//92 100//92
f 94//93 93//93 98//93 99//93
f 91//94 90//94 105//94 104//94
f 97//95 96//95 102//95 103//95
f 93//96 92//96 101//96 98//96
f 96//97 95//97 100//97 102//97
f 99//98 98//98 3//98 6//98
f 98//99 101//99 25//99 3//99
f 105//100 103//100 16//100 19//100
f 101//101 104//101 22//101 25//101
f 104//102 105//102 19//102 22//102
f 100//103 99//103 6//103 9//103
f 102//104 100//104 9//104 12//104
f 103//105 102//105 12//105 16//105
